<svg id="visual" viewBox="0 0 960 300" width="960" height="10" xmlns="http://www.w3.org/2000/svg" xmlns:xlink="http://www.w3.org/1999/xlink" version="1.1"><rect x="0" y="0" width="960" height="300" fill="#373737"></rect><path d="M0 90L22.8 96C45.7 102 91.3 114 137 107.2C182.7 100.3 228.3 74.7 274 73C319.7 71.3 365.3 93.7 411.2 104.3C457 115 503 114 548.8 103C594.7 92 640.3 71 686 68.3C731.7 65.7 777.3 81.3 823 94C868.7 106.7 914.3 116.3 937.2 121.2L960 126L960 301L937.2 301C914.3 301 868.7 301 823 301C777.3 301 731.7 301 686 301C640.3 301 594.7 301 548.8 301C503 301 457 301 411.2 301C365.3 301 319.7 301 274 301C228.3 301 182.7 301 137 301C91.3 301 45.7 301 22.8 301L0 301Z" fill="#b692d8"></path><path d="M0 179L22.8 166.3C45.7 153.7 91.3 128.3 137 125.2C182.7 122 228.3 141 274 144.5C319.7 148 365.3 136 411.2 129.8C457 123.7 503 123.3 548.8 120.3C594.7 117.3 640.3 111.7 686 113.5C731.7 115.3 777.3 124.7 823 134.8C868.7 145 914.3 156 937.2 161.5L960 167L960 301L937.2 301C914.3 301 868.7 301 823 301C777.3 301 731.7 301 686 301C640.3 301 594.7 301 548.8 301C503 301 457 301 411.2 301C365.3 301 319.7 301 274 301C228.3 301 182.7 301 137 301C91.3 301 45.7 301 22.8 301L0 301Z" fill="#a478cd"></path><path d="M0 154L22.8 162.2C45.7 170.3 91.3 186.7 137 187.5C182.7 188.3 228.3 173.7 274 171C319.7 168.3 365.3 177.7 411.2 178C457 178.3 503 169.7 548.8 162.2C594.7 154.7 640.3 148.3 686 151.2C731.7 154 777.3 166 823 169.7C868.7 173.3 914.3 168.7 937.2 166.3L960 164L960 301L937.2 301C914.3 301 868.7 301 823 301C777.3 301 731.7 301 686 301C640.3 301 594.7 301 548.8 301C503 301 457 301 411.2 301C365.3 301 319.7 301 274 301C228.3 301 182.7 301 137 301C91.3 301 45.7 301 22.8 301L0 301Z" fill="#915fc1"></path><path d="M0 218L22.8 217.2C45.7 216.3 91.3 214.7 137 210.2C182.7 205.7 228.3 198.3 274 202.5C319.7 206.7 365.3 222.3 411.2 222.7C457 223 503 208 548.8 208.7C594.7 209.3 640.3 225.7 686 232.2C731.7 238.7 777.3 235.3 823 226.8C868.7 218.3 914.3 204.7 937.2 197.8L960 191L960 301L937.2 301C914.3 301 868.7 301 823 301C777.3 301 731.7 301 686 301C640.3 301 594.7 301 548.8 301C503 301 457 301 411.2 301C365.3 301 319.7 301 274 301C228.3 301 182.7 301 137 301C91.3 301 45.7 301 22.8 301L0 301Z" fill="#7e45b6"></path><path d="M0 263L22.8 259.2C45.7 255.3 91.3 247.7 137 247C182.7 246.3 228.3 252.7 274 254.5C319.7 256.3 365.3 253.7 411.2 249.5C457 245.3 503 239.7 548.8 242C594.7 244.3 640.3 254.7 686 257.3C731.7 260 777.3 255 823 256.5C868.7 258 914.3 266 937.2 270L960 274L960 301L937.2 301C914.3 301 868.7 301 823 301C777.3 301 731.7 301 686 301C640.3 301 594.7 301 548.8 301C503 301 457 301 411.2 301C365.3 301 319.7 301 274 301C228.3 301 182.7 301 137 301C91.3 301 45.7 301 22.8 301L0 301Z" fill="#6b28aa"></path></svg>